<svg width="100" height="100" viewBox="0 0 100 100" xmlns="http://www.w3.org/2000/svg">
  <!-- Rocket body -->
  <path d="M35 85 L35 45 Q35 25 50 25 Q65 25 65 45 L65 85 Q65 90 60 90 L40 90 Q35 90 35 85 Z" fill="#f5f5dc" stroke="#ddd" stroke-width="1"/>
  
  <!-- Rocket tip -->
  <path d="M35 45 Q35 25 50 15 Q65 25 65 45" fill="#f5f5dc" stroke="#ddd" stroke-width="1"/>
  
  <!-- Window -->
  <circle cx="50" cy="40" r="8" fill="none" stroke="#ddd" stroke-width="2"/>
  
  <!-- Rocket fins -->
  <path d="M35 75 L25 85 L25 70 Z" fill="#e67e22"/>
  <path d="M65 75 L75 85 L75 70 Z" fill="#e67e22"/>
  
  <!-- Rocket flame -->
  <path d="M40 90 L45 95 L50 100 L55 95 L60 90" fill="#e67e22"/>
  
  <!-- Arrow -->
  <path d="M70 35 L85 25 L85 30 L95 30 L95 40 L85 40 L85 45 Z" fill="#e67e22"/>
</svg>
